<svg width="77" height="15" viewBox="0 0 77 15" fill="none" xmlns="http://www.w3.org/2000/svg">
<path d="M8.45792 9.43539V14.2106H5.30908V9.39922L0 0.717041H3.36853L7.02996 6.72221L10.6914 0.717041H13.8036L8.45792 9.43539Z" fill="#333333"/>
<path d="M12.9258 9.03735C12.9258 5.92624 15.379 3.68335 18.7109 3.68335C22.0428 3.68335 24.4593 5.89007 24.4593 9.03735C24.4593 12.1485 22.0428 14.3914 18.7109 14.3914C15.379 14.3914 12.9258 12.1846 12.9258 9.03735ZM21.3837 9.03735C21.3837 7.22857 20.2487 6.1433 18.7109 6.1433C17.1731 6.1433 16.0014 7.22857 16.0014 9.03735C16.0014 10.8461 17.1731 11.9314 18.7109 11.9314C20.212 11.9314 21.3837 10.8461 21.3837 9.03735Z" fill="#333333"/>
<path d="M37.0884 3.86426V14.2467H34.1958V13.0167C33.3903 13.9211 32.2187 14.3914 30.9372 14.3914C28.3009 14.3914 26.4336 12.9082 26.4336 9.72473V3.86426H29.4726V9.29062C29.4726 11.0271 30.2415 11.7867 31.5962 11.7867C32.9876 11.7867 34.0128 10.8824 34.0128 9.00121V3.86426H37.0884V3.86426Z" fill="#333333"/>
<path d="M39.2871 7.48191C39.2871 3.39405 42.436 0.5 46.7198 0.5C49.0998 0.5 51.0769 1.33203 52.3584 2.88759L50.308 4.73255C49.3927 3.68346 48.221 3.14082 46.8663 3.14082C44.3033 3.14082 42.4726 4.91343 42.4726 7.48191C42.4726 10.0142 44.3033 11.823 46.8663 11.823C48.221 11.823 49.3927 11.2804 50.308 10.2313L52.3584 12.0762C51.0769 13.6318 49.0998 14.5 46.7198 14.5C42.436 14.4638 39.2871 11.5698 39.2871 7.48191Z" fill="#333333"/>
<path d="M63.4879 8.31384V14.2467H60.632V12.9443C60.0828 13.8849 58.9843 14.3914 57.4099 14.3914C54.9568 14.3914 53.4922 13.0529 53.4922 11.2441C53.4922 9.39911 54.8103 8.13296 57.9957 8.13296H60.4123C60.4123 6.83063 59.6434 6.07095 57.9957 6.07095C56.8973 6.07095 55.7257 6.4327 54.9568 7.04769L53.8583 4.9495C54.9934 4.15363 56.7142 3.68335 58.3985 3.68335C61.6206 3.68335 63.4879 5.16655 63.4879 8.31384ZM60.4123 10.9547V9.90558H58.3253C56.8973 9.90558 56.458 10.412 56.458 11.1356C56.458 11.8952 57.117 12.4017 58.1788 12.4017C59.204 12.3655 60.0828 11.8952 60.4123 10.9547Z" fill="#333333"/>
<path d="M76.9995 8.27767V14.2105H73.9605V8.74795C73.9605 7.08387 73.1916 6.28801 71.8369 6.28801C70.3723 6.28801 69.3105 7.19239 69.3105 9.07353V14.2105H66.2715V3.82805H69.2006V5.05802C70.0061 4.15363 71.251 3.68335 72.679 3.68335C75.0955 3.68335 76.9995 5.13038 76.9995 8.27767Z" fill="#333333"/>
</svg>
